HIERARCHY
ROOT Hips
{
	OFFSET -0.001795 -0.223333 0.028219
	CHANNELS 6 Xposition Yposition Zposition Zrotation Yrotation Xrotation 
	JOINT LeftUpLeg
	{
		OFFSET 0.069520 -0.091406 -0.006815
		CHANNELS 3 Zrotation Yrotation Xrotation
		JOINT LeftLeg
		{
			OFFSET 0.034277 -0.375199 -0.004496
			CHANNELS 3 Zrotation Yrotation Xrotation
			JOINT LeftFoot
			{
				OFFSET -0.013596 -0.397961 -0.043693
				CHANNELS 3 Zrotation Yrotation Xrotation
				JOINT LeftToe
				{
					OFFSET 0.026358 -0.055791 0.119288
					CHANNELS 3 Zrotation Yrotation Xrotation
					End Site
					{
						OFFSET 0.000000 0.000000 0.000000
					}
				}
			}
		}
	}
	JOINT RightUpLeg
	{
		OFFSET -0.067670 -0.090522 -0.004320
		CHANNELS 3 Zrotation Yrotation Xrotation
		JOINT RightLeg
		{
			OFFSET -0.038290 -0.382569 -0.008850
			CHANNELS 3 Zrotation Yrotation Xrotation
			JOINT RightFoot
			{
				OFFSET 0.015774 -0.398415 -0.042312
				CHANNELS 3 Zrotation Yrotation Xrotation
				JOINT RightToe
				{
					OFFSET -0.025372 -0.048144 0.123348
					CHANNELS 3 Zrotation Yrotation Xrotation
					End Site
					{
						OFFSET 0.000000 0.000000 0.000000
					}
				}
			}
		}
	}
	JOINT Spine
	{
		OFFSET -0.002533 0.108963 -0.026696
		CHANNELS 3 Zrotation Yrotation Xrotation
		JOINT Spine1
		{
			OFFSET 0.005487 0.135180 0.001092
			CHANNELS 3 Zrotation Yrotation Xrotation
			JOINT Spine2
			{
				OFFSET 0.001457 0.052922 0.025425
				CHANNELS 3 Zrotation Yrotation Xrotation
				JOINT Neck
				{
					OFFSET -0.002778 0.213870 -0.042857
					CHANNELS 3 Zrotation Yrotation Xrotation
					JOINT Head
					{
						OFFSET 0.005152 0.064970 0.051349
						CHANNELS 3 Zrotation Yrotation Xrotation
						End Site
						{
							OFFSET 0.000000 0.000000 0.000000
						}
					}
				}
				JOINT LeftShoulder
				{
					OFFSET 0.078845 0.121749 -0.034090
					CHANNELS 3 Zrotation Yrotation Xrotation
					JOINT LeftArm
					{
						OFFSET 0.090977 0.030469 -0.008868
						CHANNELS 3 Zrotation Yrotation Xrotation
						JOINT LeftForeArm
						{
							OFFSET 0.259612 -0.012772 -0.027456
							CHANNELS 3 Zrotation Yrotation Xrotation
							JOINT LeftHand
							{
								OFFSET 0.249234 0.008986 -0.001171
								CHANNELS 3 Zrotation Yrotation Xrotation
								End Site
								{
									OFFSET 0.000000 0.000000 0.000000
								}
							}
						}
					}
				}
				JOINT RightShoulder
				{
					OFFSET -0.081759 0.118833 -0.038615
					CHANNELS 3 Zrotation Yrotation Xrotation
					JOINT RightArm
					{
						OFFSET -0.096012 0.032551 -0.009143
						CHANNELS 3 Zrotation Yrotation Xrotation
						JOINT RightForeArm
						{
							OFFSET -0.253742 -0.013329 -0.021401
							CHANNELS 3 Zrotation Yrotation Xrotation
							JOINT RightHand
							{
								OFFSET -0.255298 0.007772 -0.005559
								CHANNELS 3 Zrotation Yrotation Xrotation
								End Site
								{
									OFFSET 0.000000 0.000000 0.000000
								}
							}
						}
					}
				}
			}
		}
	}
}
MOTION
Frames: 11
Frame Time: 0.050000
-0.582140 0.884599 0.165503 -10.547212 -80.358248 11.982852 -7.502561 0.326403 -20.425439 -2.925006 2.899664 8.972308 2.135435 7.621813 -2.518330 0.000000 0.000000 0.000000 -2.662755 1.813821 7.612189 5.705928 7.620020 34.353938 21.643150 1.417150 37.342946 0.000000 0.000000 0.000000 2.849821 -0.243640 3.979587 -4.984915 8.426857 10.876159 5.694494 -4.176406 -5.403301 3.017485 -3.026350 -22.870627 0.000000 0.000000 0.000000 -38.884984 -13.703983 27.642601 -32.449859 -15.386499 -4.322311 75.089029 -54.973120 -37.548707 0.000000 0.000000 0.000000 23.826793 32.147465 -1.029275 34.832868 -3.292126 1.980266 117.588215 52.075179 56.127974 0.000000 0.000000 0.000000 
-0.630334 0.887833 0.177488 -4.308540 -74.282232 5.151263 -9.590436 -0.940343 -17.031468 -1.427159 2.686122 11.454399 -0.798376 3.669894 -7.131179 0.000000 0.000000 0.000000 -3.080930 0.833699 0.122629 10.007928 9.556569 42.945278 14.251704 0.656020 26.595704 0.000000 0.000000 0.000000 3.666765 -0.266158 4.595174 -4.182069 8.304161 12.907815 4.079985 -5.810837 -7.142379 1.422883 -2.113352 -22.299481 0.000000 0.000000 0.000000 -39.536558 -13.210385 25.817749 -34.361151 -12.289094 -4.871946 79.909648 -61.041309 -45.630013 0.000000 0.000000 0.000000 25.369784 31.469887 -0.317537 32.285697 -5.773504 1.173504 113.990201 55.722556 61.571562 0.000000 0.000000 0.000000 
-0.676180 0.892744 0.189348 -1.854374 -67.775972 1.490864 -11.431759 -1.577713 -12.380326 0.687810 1.923627 12.780210 -3.078174 -1.093783 -9.659079 0.000000 0.000000 0.000000 -3.487654 0.879573 -6.662339 11.485842 9.713782 46.546928 -3.906010 -5.924420 -0.656753 0.000000 0.000000 0.000000 4.350411 -0.289411 6.211664 -3.067273 6.812315 12.927821 2.219795 -5.566699 -7.103464 0.744475 -1.639506 -21.497926 0.000000 0.000000 0.000000 -40.456674 -13.095618 24.243108 -35.010030 -10.163448 -5.240172 80.940333 -66.893232 -51.519457 0.000000 0.000000 0.000000 26.084307 29.443798 -0.022404 30.554541 -7.135095 0.466612 108.139237 58.774875 62.723996 0.000000 0.000000 0.000000 
-0.719631 0.899462 0.199732 -1.318393 -59.292640 -0.560652 -12.449898 -1.495708 -7.918708 3.596481 0.891124 14.605942 -5.443603 -8.309175 -10.136845 0.000000 0.000000 0.000000 -5.108062 1.519937 -12.373661 10.667572 7.716039 43.905648 -10.746744 -14.860856 -9.480883 0.000000 0.000000 0.000000 5.917129 -0.320327 6.888503 -1.869795 5.822751 14.544917 0.781250 -6.337426 -7.545613 -0.904815 -0.534107 -19.575885 0.000000 0.000000 0.000000 -40.591522 -13.690205 22.550626 -36.431834 -6.779370 -5.778910 85.696485 -72.601854 -60.813225 0.000000 0.000000 0.000000 28.588165 28.377836 0.896828 27.292164 -10.271265 -0.537781 97.125857 61.976673 60.725137 0.000000 0.000000 0.000000 
-0.761139 0.904998 0.207934 -1.581882 -51.074336 -0.569181 -12.593733 -1.200024 -5.534803 7.399025 -0.382804 16.385034 -7.747831 -15.724411 -9.824511 0.000000 0.000000 0.000000 -6.511744 2.050672 -16.443413 5.813122 5.884517 36.616038 -7.666181 -9.139900 -8.641459 0.000000 0.000000 0.000000 7.082010 -0.387769 7.500657 -1.323128 4.457895 14.110497 0.266169 -5.466974 -7.011561 -0.595641 -0.409446 -18.976350 0.000000 0.000000 0.000000 -40.781267 -14.384154 21.049372 -37.388971 -4.949357 -5.947746 90.397371 -77.645838 -70.082773 0.000000 0.000000 0.000000 29.737219 26.188300 1.446591 25.254741 -12.897856 -1.452817 86.672052 63.648922 56.101545 0.000000 0.000000 0.000000 
-0.800659 0.908614 0.213601 -1.057542 -41.102189 -0.839452 -12.476974 -0.904625 -3.985930 11.565914 -1.867873 17.545758 -10.904189 -24.785912 -8.335215 0.000000 0.000000 0.000000 -9.631184 1.997052 -17.352935 2.962045 3.018030 26.092410 -3.515555 -0.850126 -6.883113 0.000000 0.000000 0.000000 6.903643 -0.453911 7.336071 0.446430 2.601950 14.721652 -0.442152 -3.655591 -7.237944 0.293137 -0.430246 -16.211457 0.000000 0.000000 0.000000 -42.309766 -15.500475 19.130009 -35.129652 -0.997063 -5.893134 109.245305 -82.205749 -94.770851 0.000000 0.000000 0.000000 30.059598 23.742104 3.053975 26.748288 -14.047807 -2.609011 69.449266 65.434154 45.700185 0.000000 0.000000 0.000000 
-0.838210 0.908143 0.216184 -0.631915 -32.577530 -0.226108 -11.648811 -0.743718 -3.451888 15.269225 -3.166397 17.323980 -13.781233 -32.674882 -7.567901 0.000000 0.000000 0.000000 -10.594026 1.864314 -18.791610 -3.297402 2.273419 16.608728 2.842296 6.823241 0.757672 0.000000 0.000000 0.000000 7.898251 -0.620515 8.251496 1.715294 0.870439 13.583156 -2.637904 -0.799845 -6.996444 1.380937 -0.637853 -14.489685 0.000000 0.000000 0.000000 -42.217814 -17.191078 16.723748 -35.102674 1.419859 -5.597766 109.420326 -84.829438 -98.428768 0.000000 0.000000 0.000000 31.781476 22.096458 5.259332 27.891461 -14.619650 -3.606059 53.679873 65.817874 35.930688 0.000000 0.000000 0.000000 
-0.874712 0.904714 0.216284 -0.129518 -22.174254 0.884351 -9.555383 -1.095305 -6.275967 17.686948 -4.497820 20.029536 -18.720657 -42.670251 -4.538808 0.000000 0.000000 0.000000 -12.219653 1.449528 -19.914913 -10.552795 3.306292 13.890307 13.847618 17.106664 15.679637 0.000000 0.000000 0.000000 9.473166 -0.709094 6.879981 1.830342 0.099983 14.385836 -3.372060 1.687537 -6.919272 3.235768 -1.290031 -13.806550 0.000000 0.000000 0.000000 -43.425909 -18.932537 14.486783 -32.177227 4.557911 -4.963237 129.344720 -87.839504 -122.825863 0.000000 0.000000 0.000000 33.408321 20.010647 7.415264 28.397559 -12.233325 -3.884874 30.121324 64.547719 20.412206 0.000000 0.000000 0.000000 
-0.911440 0.900124 0.214226 0.877823 -11.504302 1.485335 -7.741994 -1.253736 -8.305433 19.941086 -5.793458 19.973110 -25.325643 -52.447460 0.572691 0.000000 0.000000 0.000000 -13.661397 0.725538 -18.318805 -15.130704 5.101991 17.412622 19.602331 24.516614 21.095925 0.000000 0.000000 0.000000 10.266674 -0.890497 6.839366 2.261182 -1.012149 13.238353 -3.665317 3.099028 -7.662072 5.702566 -2.283907 -14.070097 0.000000 0.000000 0.000000 -42.387231 -19.649165 11.388196 -32.446641 9.120172 -5.211806 15.923652 -88.754390 -11.773146 0.000000 0.000000 0.000000 35.855949 19.001936 9.933492 28.108079 -10.263601 -3.973528 17.974793 60.749625 12.389906 0.000000 0.000000 0.000000 
-0.949144 0.894109 0.209642 2.185659 -0.270372 2.803767 -6.588974 -1.798816 -12.856837 22.368097 -7.502588 20.820348 -37.426150 -61.394814 12.409736 0.000000 0.000000 0.000000 -13.355694 0.133358 -16.866576 -17.702604 6.506254 22.568291 18.625191 23.344903 21.547392 0.000000 0.000000 0.000000 10.244984 -0.994831 6.182319 3.034616 -2.311534 14.142429 -4.681723 6.464438 -8.937908 9.276393 -3.995159 -13.045536 0.000000 0.000000 0.000000 -40.835400 -19.617436 6.104325 -29.295059 12.389609 -4.207914 -48.453548 -83.268353 46.087616 0.000000 0.000000 0.000000 38.822422 16.060188 12.745350 26.785074 -4.873457 -3.606304 1.455848 55.618658 3.050177 0.000000 0.000000 0.000000 
-0.987280 0.887718 0.203368 3.205857 8.607292 3.791915 -5.711391 -2.318011 -16.487543 24.685904 -8.823290 20.230569 -52.091993 -66.896769 27.247834 0.000000 0.000000 0.000000 -12.715294 -0.233441 -15.261539 -18.430076 6.722175 26.138215 15.844015 28.786192 10.177732 0.000000 0.000000 0.000000 10.981674 -1.237505 6.447534 3.562616 -3.338682 14.443526 -5.575899 10.268993 -10.236847 11.491829 -4.527048 -14.275256 0.000000 0.000000 0.000000 -37.974779 -20.003785 1.902659 -28.593044 15.915372 -3.882509 -35.735836 -80.302110 31.447968 0.000000 0.000000 0.000000 40.708014 15.731269 17.345618 23.327446 0.583501 -3.035460 -7.562559 48.851890 -1.379533 0.000000 0.000000 0.000000 
